<svg xmlns="http://www.w3.org/2000/svg" version="1.0" preserveAspectRatio="xMidYMid meet" viewBox="56.16 49.18 751.3 751.21">
<metadata>
Created by potrace 1.16, written by Peter Selinger 2001-2019
</metadata>
<g transform="translate(0.000000,877.000000) scale(0.100000,-0.100000)" fill="#000000" stroke="none">
<path d="M4090 8273 c-830 -60 -1539 -338 -2170 -852 -220 -179 -496 -476 -669 -719 -557 -787 -789 -1761 -650 -2727 113 -786 465 -1499 1019 -2069 628 -646 1406 -1024 2320 -1127 147 -17 610 -17 755 -1 888 101 1664 471 2280 1087 616 616 986 1392 1087 2280 19 169 16 619 -5 795 -111 900 -484 1657 -1123 2280 -705 688 -1658 1069 -2644 1058 -85 -1 -175 -3 -200 -5z m460 -353 c1214 -90 2274 -801 2819 -1889 542 -1082 465 -2369 -203 -3381 -231 -350 -539 -669 -888 -918 -453 -325 -1019 -536 -1613 -604 -143 -16 -548 -16 -695 1 -670 75 -1253 316 -1790 740 -127 100 -405 379 -515 516 -173 217 -341 491 -448 729 -492 1095 -383 2333 291 3321 387 568 934 1003 1578 1258 461 183 978 263 1464 227z"/>
<path d="M5750 6179 c-14 -5 -290 -275 -615 -599 l-590 -590 -65 21 c-91 30 -222 30 -315 1 -174 -53 -314 -198 -360 -373 -19 -71 -19 -200 0 -274 60 -229 276 -395 515 -395 236 0 446 159 514 389 24 80 21 226 -5 303 l-20 61 595 596 c649 650 615 611 604 716 -7 58 -38 98 -100 129 -54 27 -113 33 -158 15z m-1357 -1495 c45 -23 66 -44 88 -86 59 -115 -30 -258 -161 -258 -131 0 -220 143 -161 258 45 89 151 128 234 86z"/>
</g>
</svg>