<svg width="694" height="586" viewBox="0 0 694 586" fill="none" xmlns="http://www.w3.org/2000/svg">
<path d="M560.241 0.17909C630.344 2.94288 693.99 64.6676 693.99 130.999C694.912 197.33 632.189 269.188 590.681 331.834C549.172 394.48 527.957 447.914 488.294 486.607C448.63 526.221 391.441 550.174 319.493 568.599C248.468 587.025 163.607 599.922 133.167 558.465C102.728 517.008 126.71 420.276 101.806 340.126C77.823 259.976 4.95295 196.408 0.340919 138.369C-5.19352 79.4078 57.5301 25.0532 124.866 20.4469C191.279 15.8406 262.304 60.0613 337.019 55.455C411.734 50.8486 489.216 -3.50597 560.241 0.17909Z" fill="#FB9A29"/>
</svg>
