<svg width="477" height="498" viewBox="0 0 477 498" fill="none" xmlns="http://www.w3.org/2000/svg">
<path d="M327.265 69.0803C355.105 89.2161 387.182 111.03 420.469 154.657C453.757 199.123 488.86 265.403 473.124 301.48C456.783 336.717 389.603 341.751 343.606 381.184C298.214 419.777 274.005 492.769 247.375 497.803C220.745 501.998 191.695 438.235 151.75 396.286C112.41 355.175 61.5716 335.039 30.7051 287.217C0.443949 239.395 -9.84485 163.047 10.7328 107.674C30.7051 52.3006 81.5439 18.7411 126.331 6.15626C171.722 -6.42855 210.457 1.96133 242.533 16.2241C274.61 29.6479 299.424 48.1057 327.265 69.0803Z" fill="#FCA2D5"/>
</svg>
