<svg xmlns="http://www.w3.org/2000/svg" version="1.1" viewBox="146.3 70 407.4 420">
 <g>
  <path d="m297.81 70c17.473 0 33.82 4.8516 47.77 13.281 12.719 7.6875 23.441 18.355 31.199 31.039 4.1914-1.5664 8.5156-2.8359 12.945-3.7812 6.2773-1.3398 12.758-2.043 19.367-2.043 20.035 0 38.598 6.3867 53.762 17.234 14.512 10.383 25.898 24.855 32.473 41.727 16.074 3.0586 30.246 11.461 40.594 23.285 11.074 12.652 17.781 29.199 17.781 47.293 0 19.844-8.043 37.812-21.051 50.82-13.004 13.004-30.973 21.051-50.82 21.051h-263.66c-19.844 0-37.812-8.043-50.82-21.051-13.004-13.004-21.051-30.973-21.051-50.82 0-18.68 7.1562-35.711 18.887-48.512 10.422-11.375 24.438-19.387 40.23-22.219-0.089843-1.6953-0.13672-3.2891-0.13672-4.7773 0-25.551 10.355-48.684 27.102-65.426 16.746-16.746 39.875-27.102 65.426-27.102zm41.004 24.512c-11.961-7.2266-25.988-11.387-41.004-11.387-21.926 0-41.777 8.8867-56.148 23.258-14.367 14.367-23.258 34.219-23.258 56.148 0 1.7773 0.046875 3.3906 0.13281 4.8398 0.09375 1.5273 0.24219 3.1445 0.44922 4.8438l0.81641 6.7227-6.7617 0.58203c-15.109 1.3047-28.57 8.3008-38.215 18.828-9.5625 10.438-15.398 24.371-15.398 39.691 0 16.223 6.5742 30.91 17.207 41.539 10.629 10.629 25.316 17.207 41.539 17.207h263.66c16.223 0 30.91-6.5742 41.539-17.207 10.629-10.629 17.207-25.316 17.207-41.539 0-14.832-5.4727-28.359-14.5-38.68-9.1602-10.469-21.969-17.656-36.434-19.57l-4.0469-0.53516-1.3086-3.8477c-5.3984-15.855-15.668-29.453-29.02-39.004-13-9.3008-28.938-14.773-46.172-14.773-5.7461 0-11.316 0.59766-16.648 1.7383-5.5391 1.1797-10.844 2.9258-15.844 5.1719l-5.6016 2.5117-2.8594-5.4336c-6.7578-12.844-16.938-23.613-29.324-31.102z"/>
  <path d="m214.21 406.52c0 3.625 2.9375 6.5625 6.5625 6.5625s6.5625-2.9375 6.5625-6.5625v-40.062c0-3.625-2.9375-6.5625-6.5625-6.5625s-6.5625 2.9375-6.5625 6.5625z"/>
  <path d="m343.44 406.52c0 3.625 2.9375 6.5625 6.5625 6.5625s6.5625-2.9375 6.5625-6.5625v-40.062c0-3.625-2.9375-6.5625-6.5625-6.5625s-6.5625 2.9375-6.5625 6.5625z"/>
  <path d="m472.67 406.52c0 3.625 2.9375 6.5625 6.5625 6.5625s6.5625-2.9375 6.5625-6.5625v-40.062c0-3.625-2.9375-6.5625-6.5625-6.5625s-6.5625 2.9375-6.5625 6.5625z"/>
  <path d="m278.82 483.44c0 3.625 2.9375 6.5625 6.5625 6.5625s6.5625-2.9375 6.5625-6.5625v-40.062c0-3.625-2.9375-6.5625-6.5625-6.5625s-6.5625 2.9375-6.5625 6.5625z"/>
  <path d="m408.05 483.44c0 3.625 2.9375 6.5625 6.5625 6.5625s6.5625-2.9375 6.5625-6.5625v-40.062c0-3.625-2.9375-6.5625-6.5625-6.5625s-6.5625 2.9375-6.5625 6.5625z"/>
 </g>
</svg>