<svg xmlns="http://www.w3.org/2000/svg" version="1.1" viewBox="168.87 75.78 361.9 408.46">
 <g>
  <path d="m350 484.23c-35.797 0.03125-70.797-10.551-100.58-30.41-29.781-19.863-53-48.113-66.723-81.172-13.723-33.062-17.332-69.453-10.367-104.56 6.9609-35.113 24.18-67.371 49.48-92.695s57.539-42.574 92.648-49.57c35.105-6.9961 71.496-3.4258 104.57 10.266 33.074 13.691 61.344 36.883 81.234 66.645 19.891 29.762 30.508 64.754 30.508 100.55-0.042969 47.949-19.102 93.922-52.988 127.84-33.887 33.918-79.84 53.02-127.79 53.113zm0-350c-33.477 0-66.203 9.9297-94.035 28.531-27.832 18.602-49.523 45.043-62.324 75.973-12.805 30.934-16.145 64.969-9.6016 97.797 6.543 32.832 22.68 62.984 46.363 86.645s53.852 39.762 86.691 46.273c32.836 6.5078 66.867 3.1328 97.789-9.7031 30.918-12.836 57.336-34.551 75.906-62.402 18.574-27.852 28.469-60.586 28.438-94.066-0.09375-44.836-17.957-87.805-49.68-119.5-31.719-31.688-74.711-49.508-119.55-49.551z"/>
  <path d="m350 437.5c-35.598 0-69.738-14.141-94.91-39.312s-39.316-59.312-39.316-94.914c0-35.598 14.145-69.738 39.316-94.91s59.312-39.312 94.91-39.312 69.738 14.141 94.91 39.312 39.316 59.312 39.316 94.91c-0.046874 35.586-14.203 69.699-39.367 94.863-25.16 25.16-59.273 39.316-94.859 39.363zm0-256.73c-32.488 0-63.648 12.906-86.621 35.883-22.973 22.973-35.879 54.129-35.879 86.617 0 32.492 12.906 63.648 35.879 86.621 22.973 22.973 54.133 35.879 86.621 35.879s63.648-12.906 86.621-35.879c22.973-22.973 35.879-54.129 35.879-86.621 0-32.488-12.906-63.645-35.879-86.617-22.973-22.977-54.133-35.883-86.621-35.883z"/>
  <path d="m250.77 309.23h-29.047c-1.7305 0.29688-3.5039-0.17969-4.8477-1.3125-1.3438-1.1289-2.1211-2.7969-2.1211-4.5508 0-1.7578 0.77734-3.4219 2.1211-4.5547 1.3438-1.1289 3.1172-1.6094 4.8477-1.3086h29.051-0.003906c1.7305-0.30078 3.5039 0.17969 4.8477 1.3086 1.3438 1.1328 2.1211 2.7969 2.1211 4.5547 0 1.7539-0.77734 3.4219-2.1211 4.5508-1.3438 1.1328-3.1172 1.6094-4.8477 1.3125z"/>
  <path d="m280 239.05c-1.5312 0.03125-3.0039-0.60938-4.0234-1.75l-20.652-20.652c-2.2695-2.2695-2.2695-5.9531 0-8.2227 2.2734-2.2734 5.9531-2.2734 8.2266 0l20.648 20.648c1.1016 1.0859 1.7227 2.5664 1.7227 4.1133s-0.62109 3.0273-1.7227 4.1133c-1.1016 1.1328-2.6172 1.7656-4.1992 1.75z"/>
  <path d="m420 239.05c-1.582 0.015625-3.0977-0.61719-4.1992-1.75-1.1016-1.0859-1.7227-2.5664-1.7227-4.1133s0.62109-3.0273 1.7227-4.1133l21.699-20.648c2.2695-2.2734 5.9531-2.2734 8.2266 0 2.2695 2.2695 2.2695 5.9531 0 8.2227l-20.652 20.652c-1.2422 1.4688-3.1914 2.1406-5.0742 1.75z"/>
  <path d="m350 210c-3.1875 0-5.7734-2.5859-5.7734-5.7734v-29.227c0-3.1875 2.5859-5.7734 5.7734-5.7734s5.7734 2.5859 5.7734 5.7734v29.227c0 3.1875-2.5859 5.7734-5.7734 5.7734z"/>
  <path d="m440.82 399.88c-1.5898 0.058594-3.125-0.57812-4.1992-1.75l-20.648-20.477c-2.3164-2.3203-2.3164-6.0781 0-8.3984 1.082-1.1016 2.5664-1.7188 4.1094-1.7188 1.5469 0 3.0273 0.61719 4.1133 1.7188l20.648 20.648h0.003906c1.0977 1.0859 1.7188 2.5664 1.7188 4.1133s-0.62109 3.0273-1.7188 4.1133c-1.0234 1.1445-2.4922 1.7812-4.0273 1.75z"/>
  <path d="m259.18 399.88c-1.5352 0.03125-3.0039-0.60547-4.0273-1.75-1.0977-1.0859-1.7188-2.5664-1.7188-4.1133s0.62109-3.0273 1.7188-4.1133l20.648-20.648h0.003906c1.0859-1.1016 2.5664-1.7188 4.1133-1.7188 1.543 0 3.0273 0.61719 4.1094 1.7188 2.3164 2.3203 2.3164 6.0781 0 8.3984l-20.648 20.477c-1.0742 1.1719-2.6094 1.8086-4.1992 1.75z"/>
  <path d="m350 437.5c-3.1875 0-5.7734-2.5859-5.7734-5.7734v-29.227c0-3.1875 2.5859-5.7734 5.7734-5.7734s5.7734 2.5859 5.7734 5.7734v29.227c0 3.1875-2.5859 5.7734-5.7734 5.7734z"/>
  <path d="m478.27 309.23h-29.047c-1.7305 0.29688-3.5039-0.17969-4.8477-1.3125-1.3438-1.1289-2.1211-2.7969-2.1211-4.5508 0-1.7578 0.77734-3.4219 2.1211-4.5547 1.3438-1.1289 3.1172-1.6094 4.8477-1.3086h29.051-0.003906c1.7305-0.30078 3.5039 0.17969 4.8477 1.3086 1.3438 1.1328 2.1211 2.7969 2.1211 4.5547 0 1.7539-0.77734 3.4219-2.1211 4.5508-1.3438 1.1328-3.1172 1.6094-4.8477 1.3125z"/>
  <path d="m373.27 332.5c-1.5312 0.03125-3-0.60547-4.0234-1.75l-46.727-46.551c-1.375-1.4414-1.9648-3.4688-1.5742-5.4258 0.39062-1.9531 1.7891-3.5508 3.6758-4.1992l75.773-29.574c2.1914-0.85938 4.6836-0.30469 6.3008 1.3984 1.6172 1.6055 2.1016 4.0273 1.2266 6.125l-29.227 75.949v0.003906c-0.72266 1.7969-2.3008 3.1094-4.1992 3.5zm-36.227-50.227 35 33.949 21.176-55.301z"/>
  <path d="m297.5 361.73c-1.5664-0.058593-3.0586-0.67969-4.1992-1.75-1.6055-1.6836-2.082-4.1406-1.2266-6.3008l29.227-75.773v-0.003906c0.75-1.8086 2.3047-3.168 4.1992-3.6719 1.9023-0.39453 3.875 0.19922 5.25 1.5742l46.727 46.727v-0.003906c1.375 1.4453 1.9648 3.4688 1.5742 5.4258-0.39062 1.9531-1.7891 3.5547-3.6758 4.1992l-75.773 29.051c-0.65234 0.33594-1.3711 0.51562-2.1016 0.52734zm31.324-71.227-21.176 55.125 55.301-21.176z"/>
  <path d="m350 134.23c-7.75 0-15.184-3.082-20.664-8.5625-5.4805-5.4805-8.5625-12.914-8.5625-20.664s3.082-15.184 8.5625-20.664c5.4805-5.4805 12.914-8.5625 20.664-8.5625s15.184 3.082 20.664 8.5625c5.4805 5.4805 8.5625 12.914 8.5625 20.664s-3.082 15.184-8.5625 20.664c-5.4805 5.4805-12.914 8.5625-20.664 8.5625zm0-46.727c-4.6406 0-9.0938 1.8438-12.375 5.125s-5.125 7.7344-5.125 12.375 1.8438 9.0938 5.125 12.375 7.7344 5.125 12.375 5.125 9.0938-1.8438 12.375-5.125 5.125-7.7344 5.125-12.375-1.8438-9.0938-5.125-12.375-7.7344-5.125-12.375-5.125z"/>
 </g>
</svg>