<svg xmlns="http://www.w3.org/2000/svg" version="1.1" viewBox="227.51 46.21 211.09 447.35">
 <g>
  <path d="m389.38 298.76c14.504 9.1758 26.621 21.801 35.203 36.723 8.9141 15.5 14.016 33.438 14.016 52.527 0 29.145-11.812 55.531-30.914 74.633-19.102 19.102-45.488 30.914-74.633 30.914s-55.531-11.812-74.633-30.914c-19.102-19.102-30.914-45.488-30.914-74.633 0-19.09 5.0977-37.023 14.016-52.527 8.582-14.922 20.703-27.547 35.203-36.723v-196.22c0-15.496 6.3359-29.582 16.539-39.789 10.207-10.207 24.289-16.539 39.789-16.539 15.496 0 29.582 6.3359 39.789 16.539 10.207 10.207 16.539 24.289 16.539 39.789zm23.875 43.234c-8.0664-14.027-19.723-25.742-33.719-33.898l-3.2812-1.9141v-203.64c0-11.875-4.8633-22.676-12.695-30.508-7.832-7.832-18.633-12.695-30.508-12.695s-22.672 4.8633-30.508 12.695c-7.832 7.832-12.695 18.633-12.695 30.508v203.64l-3.2812 1.9141c-13.996 8.1562-25.648 19.871-33.719 33.898-7.7734 13.516-12.219 29.227-12.219 46.016 0 25.523 10.344 48.629 27.07 65.352 16.723 16.727 39.832 27.07 65.352 27.07 25.523 0 48.629-10.344 65.352-27.07 16.727-16.723 27.07-39.832 27.07-65.352 0-16.789-4.4453-32.5-12.219-46.016z"/>
  <path d="m333.05 332.08c15.293 0 29.137 6.1992 39.156 16.219s16.219 23.867 16.219 39.156c0 15.293-6.1992 29.137-16.219 39.156s-23.867 16.219-39.156 16.219c-15.293 0-29.137-6.1992-39.156-16.219s-16.219-23.867-16.219-39.156c0-15.293 6.1992-29.137 16.219-39.156s23.867-16.219 39.156-16.219zm29.879 25.5c-7.6445-7.6445-18.211-12.375-29.879-12.375s-22.23 4.7305-29.879 12.375c-7.6445 7.6445-12.375 18.211-12.375 29.879 0 11.668 4.7305 22.23 12.375 29.879 7.6445 7.6445 18.211 12.375 29.879 12.375s22.23-4.7305 29.879-12.375c7.6445-7.6445 12.375-18.211 12.375-29.879 0-11.668-4.7305-22.23-12.375-29.879z"/>
  <path d="m339.61 104.88c0-3.625-2.9375-6.5625-6.5625-6.5625s-6.5625 2.9375-6.5625 6.5625v233.77c0 3.625 2.9375 6.5625 6.5625 6.5625s6.5625-2.9375 6.5625-6.5625z"/>
 </g>
</svg>