<svg xmlns="http://www.w3.org/2000/svg" version="1.0" preserveAspectRatio="xMidYMid meet" viewBox="55.09 129.09 819.31 636.59">
<metadata>
Created by potrace 1.16, written by Peter Selinger 2001-2019
</metadata>
<g transform="translate(0.000000,913.000000) scale(0.100000,-0.100000)" fill="#000000" stroke="none">
<path d="M6930 7829 c-454 -52 -888 -299 -1138 -648 -42 -58 -43 -108 -4 -152 24 -27 36 -32 77 -33 47 -1 49 0 99 59 247 291 511 459 846 537 126 29 386 36 522 13 593 -98 1053 -542 1180 -1138 29 -138 31 -388 4 -527 -87 -447 -374 -829 -771 -1024 -123 -61 -222 -96 -364 -128 l-96 -22 -3337 -6 -3336 -5 -26 -24 c-14 -13 -28 -39 -32 -57 -8 -42 19 -99 54 -113 20 -8 945 -11 3377 -8 l3350 2 100 23 c593 136 1046 537 1231 1087 67 201 78 274 78 525 0 197 -2 238 -22 330 -76 347 -227 619 -484 866 -345 332 -834 497 -1308 443z"/>
<path d="M3933 7034 c-198 -43 -400 -165 -522 -316 -44 -54 -51 -69 -51 -106 0 -54 12 -77 52 -98 58 -30 89 -15 191 89 168 171 354 247 572 234 182 -11 327 -79 465 -217 67 -67 94 -103 128 -170 108 -217 110 -431 5 -650 -39 -81 -59 -108 -137 -186 -74 -73 -107 -99 -176 -132 -47 -23 -121 -51 -164 -62 -78 -20 -114 -20 -1868 -20 -1966 0 -1830 4 -1863 -60 -20 -39 -19 -68 5 -107 12 -21 32 -36 57 -43 27 -8 542 -10 1838 -8 l1800 4 83 22 c361 96 620 361 698 715 25 109 23 300 -4 410 -88 358 -363 629 -715 701 -93 20 -306 20 -394 0z"/>
<path d="M594 4085 c-51 -35 -55 -122 -8 -166 l26 -24 2641 -5 2642 -5 97 -27 c306 -84 545 -266 697 -532 169 -297 186 -685 41 -994 -240 -512 -817 -764 -1344 -588 -200 68 -392 201 -519 361 -47 60 -70 74 -120 75 -57 0 -97 -43 -97 -103 0 -38 7 -55 45 -105 136 -181 368 -345 602 -426 702 -242 1465 139 1687 844 59 186 76 436 43 626 -97 545 -528 975 -1071 1069 -78 13 -401 15 -2715 15 -2287 0 -2629 -2 -2647 -15z"/>
</g>
</svg>