<svg xmlns="http://www.w3.org/2000/svg" version="1.0" preserveAspectRatio="xMidYMid meet" viewBox="191.5 30.98 555.32 853.59">
<metadata>
Created by potrace 1.16, written by Peter Selinger 2001-2019
</metadata>
<g transform="translate(0.000000,978.000000) scale(0.100000,-0.100000)" fill="#000000" stroke="none">
<path d="M4615 9456 c-52 -23 -71 -52 -352 -517 -1317 -2181 -2154 -3950 -2324 -4914 -32 -180 -32 -492 0 -705 92 -616 357 -1148 785 -1576 432 -432 970 -699 1591 -791 169 -25 581 -25 750 0 432 64 819 211 1165 442 171 114 273 198 421 345 499 496 782 1142 815 1860 8 174 -5 327 -47 532 -165 816 -776 2162 -1782 3923 -290 508 -763 1295 -815 1357 -46 55 -138 74 -207 44z m210 -734 c709 -1188 1262 -2204 1643 -3022 l72 -155 -37 -8 c-73 -15 -418 -20 -520 -8 -350 44 -679 176 -960 388 -41 31 -136 115 -212 186 -261 249 -479 394 -766 510 -169 69 -464 147 -554 147 -15 0 -31 3 -34 7 -11 10 228 450 548 1013 272 477 675 1159 685 1159 3 0 63 -97 135 -217z m-1261 -2347 c279 -56 546 -175 771 -342 44 -33 144 -119 222 -192 241 -226 395 -336 628 -451 217 -107 435 -175 690 -217 161 -26 535 -24 695 5 63 11 118 17 122 13 4 -3 46 -105 93 -226 166 -420 274 -783 310 -1044 32 -223 10 -511 -59 -791 -209 -841 -869 -1517 -1706 -1746 -341 -94 -687 -113 -1020 -58 -1009 168 -1797 931 -1994 1931 -48 241 -59 477 -31 672 70 484 377 1285 869 2270 l108 214 90 -7 c50 -3 145 -17 212 -31z"/>
</g>
</svg>